<svg width="20" height="20" viewBox="0 0 20 20" fill="" xmlns="http://www.w3.org/2000/svg">
<path d="M11.25 3.75H18.75V6.25H11.25V3.75ZM11.25 13.75H18.75V16.25H11.25V13.75ZM6.25 1.25H3.75V3.75H1.25V6.25H3.75V8.75H6.25V6.25H8.75V3.75H6.25V1.25ZM8.75 13L7 11.25L5 13.25L3 11.25L1.25 13L3.25 15L1.25 17L3 18.75L5 16.75L7 18.75L8.75 17L6.75 15L8.75 13ZM16.25 18.125C16.25 18.4565 16.1183 18.7745 15.8839 19.0089C15.6495 19.2433 15.3315 19.375 15 19.375C14.6685 19.375 14.3505 19.2433 14.1161 19.0089C13.8817 18.7745 13.75 18.4565 13.75 18.125C13.75 17.7935 13.8817 17.4755 14.1161 17.2411C14.3505 17.0067 14.6685 16.875 15 16.875C15.3315 16.875 15.6495 17.0067 15.8839 17.2411C16.1183 17.4755 16.25 17.7935 16.25 18.125ZM16.25 11.875C16.25 12.2065 16.1183 12.5245 15.8839 12.7589C15.6495 12.9933 15.3315 13.125 15 13.125C14.6685 13.125 14.3505 12.9933 14.1161 12.7589C13.8817 12.5245 13.75 12.2065 13.75 11.875C13.75 11.5435 13.8817 11.2255 14.1161 10.9911C14.3505 10.7567 14.6685 10.625 15 10.625C15.3315 10.625 15.6495 10.7567 15.8839 10.9911C16.1183 11.2255 16.25 11.5435 16.25 11.875Z" fill=""/>
</svg>
