<svg width="24" height="24" viewBox="0 0 24 24" fill="none" xmlns="http://www.w3.org/2000/svg">
<path d="M12 21C9.5 21 7.375 20.125 5.625 18.375C3.875 16.625 3 14.5 3 12C3 9.5 3.875 7.375 5.625 5.625C7.375 3.875 9.5 3 12 3C12.2333 3 12.4627 3.00833 12.688 3.025C12.9133 3.04167 13.134 3.06667 13.35 3.1C12.6667 3.58333 12.1207 4.21267 11.712 4.988C11.3033 5.76333 11.0993 6.60067 11.1 7.5C11.1 9 11.625 10.275 12.675 11.325C13.725 12.375 15 12.9 16.5 12.9C17.4167 12.9 18.2583 12.6957 19.025 12.287C19.7917 11.8783 20.4167 11.3327 20.9 10.65C20.9333 10.8667 20.9583 11.0873 20.975 11.312C20.9917 11.5367 21 11.766 21 12C21 14.5 20.125 16.625 18.375 18.375C16.625 20.125 14.5 21 12 21Z" fill="white"/>
</svg>
