<svg width="20" height="20" viewBox="0 0 20 20" fill="" xmlns="http://www.w3.org/2000/svg">
<path d="M16.875 5.625H4.375C4.20924 5.625 4.05027 5.55915 3.93306 5.44194C3.81585 5.32473 3.75 5.16576 3.75 5C3.75 4.83424 3.81585 4.67527 3.93306 4.55806C4.05027 4.44085 4.20924 4.375 4.375 4.375H15C15.1658 4.375 15.3247 4.30915 15.4419 4.19194C15.5592 4.07473 15.625 3.91576 15.625 3.75C15.625 3.58424 15.5592 3.42527 15.4419 3.30806C15.3247 3.19085 15.1658 3.125 15 3.125H4.375C3.87772 3.125 3.40081 3.32254 3.04917 3.67417C2.69754 4.02581 2.5 4.50272 2.5 5V15C2.5 15.4973 2.69754 15.9742 3.04917 16.3258C3.40081 16.6775 3.87772 16.875 4.375 16.875H16.875C17.2065 16.875 17.5245 16.7433 17.7589 16.5089C17.9933 16.2745 18.125 15.9565 18.125 15.625V6.875C18.125 6.54348 17.9933 6.22554 17.7589 5.99112C17.5245 5.7567 17.2065 5.625 16.875 5.625ZM16.875 15.625H4.375C4.20924 15.625 4.05027 15.5592 3.93306 15.4419C3.81585 15.3247 3.75 15.1658 3.75 15V6.76797C3.95068 6.83911 4.16208 6.87531 4.375 6.875H16.875V15.625ZM13.125 10.9375C13.125 10.7521 13.18 10.5708 13.283 10.4167C13.386 10.2625 13.5324 10.1423 13.7037 10.0714C13.875 10.0004 14.0635 9.98184 14.2454 10.018C14.4273 10.0542 14.5943 10.1435 14.7254 10.2746C14.8565 10.4057 14.9458 10.5727 14.982 10.7546C15.0182 10.9365 14.9996 11.125 14.9286 11.2963C14.8577 11.4676 14.7375 11.614 14.5833 11.717C14.4292 11.82 14.2479 11.875 14.0625 11.875C13.8139 11.875 13.5754 11.7762 13.3996 11.6004C13.2238 11.4246 13.125 11.1861 13.125 10.9375Z" fill=""/>
</svg>
