<svg width="20" height="20" viewBox="0 0 20 20" fill="" xmlns="http://www.w3.org/2000/svg">
<path fill-rule="evenodd" clip-rule="evenodd" d="M4.23244 4.22415C7.39494 1.06582 12.5366 1.09915 15.7183 4.28165C18.9016 7.46499 18.9349 12.6092 15.7716 15.7717C12.6091 18.9342 7.46494 18.9017 4.28161 15.7183C3.38619 14.8266 2.70965 13.7395 2.30509 12.5423C1.90053 11.3451 1.77897 10.0704 1.94994 8.81832C1.97237 8.654 2.05917 8.50531 2.19122 8.40498C2.32328 8.30465 2.48978 8.26089 2.65411 8.28332C2.81843 8.30575 2.96711 8.39254 3.06745 8.5246C3.16778 8.65666 3.21154 8.82316 3.18911 8.98749C3.04398 10.0486 3.14687 11.1289 3.4897 12.1435C3.83253 13.1581 4.40596 14.0794 5.16494 14.835C7.86911 17.5383 12.2216 17.5542 14.8883 14.8883C17.5541 12.2217 17.5383 7.86915 14.8349 5.16499C12.1324 2.46332 7.78244 2.44582 5.11578 5.10832L5.73911 5.11082C5.82118 5.1112 5.90238 5.12775 5.97806 5.15951C6.05375 5.19128 6.12243 5.23763 6.1802 5.29594C6.23796 5.35425 6.28368 5.42336 6.31473 5.49934C6.34579 5.57531 6.36158 5.65666 6.36119 5.73874C6.36081 5.82081 6.34426 5.90201 6.3125 5.97769C6.28074 6.05337 6.23438 6.12206 6.17607 6.17982C6.11776 6.23759 6.04865 6.28331 5.97267 6.31436C5.8967 6.34542 5.81535 6.3612 5.73328 6.36082L3.61161 6.35082C3.44686 6.34994 3.28912 6.28405 3.1727 6.16747C3.05628 6.0509 2.9906 5.89307 2.98994 5.72832L2.97911 3.60832C2.97867 3.52624 2.9944 3.44489 3.02541 3.36889C3.05641 3.29289 3.10208 3.22375 3.15981 3.1654C3.21754 3.10706 3.28619 3.06065 3.36185 3.02884C3.43751 2.99702 3.5187 2.98043 3.60078 2.97999C3.68285 2.97955 3.76421 2.99528 3.84021 3.02629C3.9162 3.05729 3.98535 3.10296 4.04369 3.16069C4.10204 3.21842 4.14844 3.28707 4.18026 3.36273C4.21207 3.43839 4.22867 3.51958 4.22911 3.60165L4.23244 4.22499V4.22415Z" fill=""/>
<path opacity="0.5" d="M10 6.04166C10.1658 6.04166 10.3247 6.1075 10.4419 6.22471C10.5592 6.34192 10.625 6.5009 10.625 6.66666V9.74166L12.525 11.6417C12.5864 11.6989 12.6357 11.7679 12.6698 11.8445C12.704 11.9212 12.7223 12.004 12.7238 12.0879C12.7253 12.1718 12.7099 12.2552 12.6784 12.333C12.647 12.4108 12.6002 12.4815 12.5409 12.5409C12.4815 12.6002 12.4108 12.647 12.333 12.6784C12.2552 12.7099 12.1718 12.7253 12.0879 12.7238C12.004 12.7223 11.9212 12.704 11.8446 12.6698C11.7679 12.6356 11.6989 12.5864 11.6417 12.525L9.61917 10.5033C9.54168 10.4259 9.48023 10.3339 9.43833 10.2326C9.39644 10.1314 9.37491 10.0229 9.375 9.91332V6.66666C9.375 6.5009 9.44085 6.34192 9.55806 6.22471C9.67527 6.1075 9.83424 6.04166 10 6.04166Z" fill=""/>
</svg>
