<svg width="20" height="20" viewBox="0 0 20 20" fill="" xmlns="http://www.w3.org/2000/svg">
<path d="M6.51256 2.97917C5.71473 2.97818 4.933 3.20355 4.25815 3.62911C3.5833 4.05467 3.04303 4.66295 2.70009 5.3833C2.35714 6.10366 2.2256 6.90652 2.32074 7.69866C2.41588 8.49079 2.73379 9.23967 3.23755 9.85833L10.0001 17.7958L16.6959 9.9375L16.7292 9.9L16.7626 9.85833C17.1283 9.41731 17.4003 8.90645 17.5622 8.35688C17.7241 7.80731 17.7725 7.23053 17.7043 6.66168C17.6361 6.09283 17.4528 5.54382 17.1655 5.0481C16.8783 4.55237 16.4932 4.12031 16.0336 3.77824C15.574 3.43617 15.0496 3.19124 14.4922 3.05838C13.9349 2.92551 13.3564 2.9075 12.7919 3.00544C12.2274 3.10337 11.6888 3.3152 11.2088 3.62802C10.7288 3.94084 10.3176 4.34811 10.0001 4.825C9.61427 4.25631 9.0951 3.79075 8.48789 3.46898C7.88068 3.14722 7.20391 2.97905 6.51672 2.97917H6.51256Z" stroke="" stroke-linecap="round" stroke-linejoin="round"/>
</svg>
