<svg width="20" height="20" viewBox="0 0 20 20" fill="" xmlns="http://www.w3.org/2000/svg">
<path d="M11.6667 5.83334C11.6667 6.27537 11.4911 6.69929 11.1785 7.01185C10.866 7.32441 10.442 7.50001 10 7.50001C9.55797 7.50001 9.13405 7.32441 8.82149 7.01185C8.50893 6.69929 8.33333 6.27537 8.33333 5.83334C8.33333 5.39131 8.50893 4.96739 8.82149 4.65483C9.13405 4.34227 9.55797 4.16667 10 4.16667C10.442 4.16667 10.866 4.34227 11.1785 4.65483C11.4911 4.96739 11.6667 5.39131 11.6667 5.83334ZM2.5 10C2.5 9.77899 2.5878 9.56703 2.74408 9.41075C2.90036 9.25447 3.11232 9.16667 3.33333 9.16667H16.6667C16.8877 9.16667 17.0996 9.25447 17.2559 9.41075C17.4122 9.56703 17.5 9.77899 17.5 10C17.5 10.221 17.4122 10.433 17.2559 10.5893C17.0996 10.7455 16.8877 10.8333 16.6667 10.8333H3.33333C3.11232 10.8333 2.90036 10.7455 2.74408 10.5893C2.5878 10.433 2.5 10.221 2.5 10ZM10 15.8333C10.442 15.8333 10.866 15.6577 11.1785 15.3452C11.4911 15.0326 11.6667 14.6087 11.6667 14.1667C11.6667 13.7246 11.4911 13.3007 11.1785 12.9882C10.866 12.6756 10.442 12.5 10 12.5C9.55797 12.5 9.13405 12.6756 8.82149 12.9882C8.50893 13.3007 8.33333 13.7246 8.33333 14.1667C8.33333 14.6087 8.50893 15.0326 8.82149 15.3452C9.13405 15.6577 9.55797 15.8333 10 15.8333Z" fill=""/>
</svg>
