<svg width="20" height="20" viewBox="0 0 20 20" fill="" xmlns="http://www.w3.org/2000/svg">
<path d="M14.0625 5.625V4.6875H6.95308L10.7343 9.41406C10.8675 9.58034 10.94 9.78699 10.94 10C10.94 10.213 10.8675 10.4197 10.7343 10.5859L6.95308 15.3125H14.0625V14.375C14.0625 14.1264 14.1612 13.8879 14.337 13.7121C14.5129 13.5363 14.7513 13.4375 15 13.4375C15.2486 13.4375 15.487 13.5363 15.6629 13.7121C15.8387 13.8879 15.9375 14.1264 15.9375 14.375V16.25C15.9375 16.4986 15.8387 16.7371 15.6629 16.9129C15.487 17.0887 15.2486 17.1875 15 17.1875H4.99995C4.82331 17.1875 4.65025 17.1377 4.50072 17.0436C4.35118 16.9496 4.23125 16.8153 4.15475 16.656C4.07824 16.4968 4.04828 16.3192 4.0683 16.1437C4.08832 15.9682 4.15752 15.802 4.26792 15.6641L8.79917 10L4.26792 4.33594C4.15752 4.19805 4.08832 4.03177 4.0683 3.85627C4.04828 3.68077 4.07824 3.50318 4.15475 3.34396C4.23125 3.18475 4.35118 3.05039 4.50072 2.95636C4.65025 2.86233 4.82331 2.81246 4.99995 2.8125H15C15.2486 2.8125 15.487 2.91127 15.6629 3.08709C15.8387 3.2629 15.9375 3.50136 15.9375 3.75V5.625C15.9375 5.87364 15.8387 6.1121 15.6629 6.28791C15.487 6.46373 15.2486 6.5625 15 6.5625C14.7513 6.5625 14.5129 6.46373 14.337 6.28791C14.1612 6.1121 14.0625 5.87364 14.0625 5.625Z" fill=""/>
</svg>
