<svg width="20" height="20" viewBox="0 0 20 20" fill="" xmlns="http://www.w3.org/2000/svg">
<path d="M9.99996 18.3333C8.86107 18.3333 7.78468 18.1144 6.77079 17.6767C5.7569 17.2389 4.87135 16.6417 4.11413 15.885C3.35746 15.1283 2.76024 14.243 2.32246 13.2292C1.88468 12.2153 1.66607 11.1389 1.66663 9.99999C1.66663 8.84721 1.89246 7.76388 2.34413 6.74999C2.79579 5.7361 3.4069 4.85416 4.17746 4.10416C4.94802 3.35416 5.84718 2.76055 6.87496 2.32332C7.90274 1.8861 8.99996 1.66721 10.1666 1.66666C11.2777 1.66666 12.3263 1.85777 13.3125 2.23999C14.2986 2.62221 15.1633 3.14999 15.9066 3.82332C16.6494 4.49666 17.2397 5.29527 17.6775 6.21916C18.1152 7.14304 18.3338 8.13943 18.3333 9.20832C18.3333 10.8055 17.8472 12.0314 16.875 12.8858C15.9027 13.7403 14.7222 14.1672 13.3333 14.1667H11.7916C11.6666 14.1667 11.5797 14.2014 11.5308 14.2708C11.4819 14.3403 11.4577 14.4167 11.4583 14.5C11.4583 14.6667 11.5625 14.9064 11.7708 15.2192C11.9791 15.5319 12.0833 15.8894 12.0833 16.2917C12.0833 16.9861 11.8922 17.5 11.51 17.8333C11.1277 18.1667 10.6244 18.3333 9.99996 18.3333ZM5.41663 10.8333C5.77774 10.8333 6.07635 10.7153 6.31246 10.4792C6.54857 10.243 6.66663 9.94443 6.66663 9.58332C6.66663 9.22221 6.54857 8.9236 6.31246 8.68749C6.07635 8.45138 5.77774 8.33332 5.41663 8.33332C5.05552 8.33332 4.7569 8.45138 4.52079 8.68749C4.28468 8.9236 4.16663 9.22221 4.16663 9.58332C4.16663 9.94443 4.28468 10.243 4.52079 10.4792C4.7569 10.7153 5.05552 10.8333 5.41663 10.8333ZM7.91663 7.49999C8.27774 7.49999 8.57635 7.38193 8.81246 7.14582C9.04857 6.90971 9.16663 6.6111 9.16663 6.24999C9.16663 5.88888 9.04857 5.59027 8.81246 5.35416C8.57635 5.11805 8.27774 4.99999 7.91663 4.99999C7.55552 4.99999 7.25691 5.11805 7.02079 5.35416C6.78468 5.59027 6.66663 5.88888 6.66663 6.24999C6.66663 6.6111 6.78468 6.90971 7.02079 7.14582C7.25691 7.38193 7.55552 7.49999 7.91663 7.49999ZM12.0833 7.49999C12.4444 7.49999 12.743 7.38193 12.9791 7.14582C13.2152 6.90971 13.3333 6.6111 13.3333 6.24999C13.3333 5.88888 13.2152 5.59027 12.9791 5.35416C12.743 5.11805 12.4444 4.99999 12.0833 4.99999C11.7222 4.99999 11.4236 5.11805 11.1875 5.35416C10.9513 5.59027 10.8333 5.88888 10.8333 6.24999C10.8333 6.6111 10.9513 6.90971 11.1875 7.14582C11.4236 7.38193 11.7222 7.49999 12.0833 7.49999ZM14.5833 10.8333C14.9444 10.8333 15.243 10.7153 15.4791 10.4792C15.7152 10.243 15.8333 9.94443 15.8333 9.58332C15.8333 9.22221 15.7152 8.9236 15.4791 8.68749C15.243 8.45138 14.9444 8.33332 14.5833 8.33332C14.2222 8.33332 13.9236 8.45138 13.6875 8.68749C13.4513 8.9236 13.3333 9.22221 13.3333 9.58332C13.3333 9.94443 13.4513 10.243 13.6875 10.4792C13.9236 10.7153 14.2222 10.8333 14.5833 10.8333ZM9.99996 16.6667C10.125 16.6667 10.2258 16.6319 10.3025 16.5625C10.3791 16.493 10.4172 16.4028 10.4166 16.2917C10.4166 16.0972 10.3125 15.868 10.1041 15.6042C9.89579 15.3403 9.79163 14.9444 9.79163 14.4167C9.79163 13.8333 9.99302 13.368 10.3958 13.0208C10.7986 12.6736 11.2916 12.5 11.875 12.5H13.3333C14.25 12.5 15.0347 12.2325 15.6875 11.6975C16.3402 11.1625 16.6666 10.3328 16.6666 9.20832C16.6666 7.52777 16.0241 6.12832 14.7391 5.00999C13.4541 3.89166 11.93 3.33277 10.1666 3.33332C8.27774 3.33332 6.66663 3.97916 5.33329 5.27082C3.99996 6.56249 3.33329 8.13888 3.33329 9.99999C3.33329 11.8472 3.98246 13.4203 5.28079 14.7192C6.57913 16.018 8.15218 16.6672 9.99996 16.6667Z" fill=""/>
</svg>
