<svg width="20" height="20" viewBox="0 0 12 12" fill="" xmlns="http://www.w3.org/2000/svg">
<g clip-path="url(#clip0_5_97)">
<path d="M8.70995 1.5C8.87229 1.49998 9.03219 1.53949 9.17584 1.61511C9.31949 1.69072 9.44257 1.80017 9.53445 1.934L9.57795 2.004L11.245 4.92C11.3467 5.09798 11.3913 5.30295 11.3727 5.50713C11.3541 5.71131 11.2732 5.90484 11.141 6.0615L11.084 6.123L6.44245 10.7645C6.33358 10.8733 6.18837 10.9382 6.03465 10.9466C5.88094 10.955 5.72953 10.9063 5.60945 10.81L5.55845 10.765L0.916952 6.123C0.771965 5.97808 0.67502 5.7921 0.639246 5.59024C0.603473 5.38839 0.630599 5.18042 0.716952 4.9945L0.755952 4.9195L2.42245 2.0035C2.503 1.86254 2.61665 1.74331 2.75359 1.6561C2.89054 1.5689 3.04665 1.51635 3.20845 1.503L3.28995 1.5H8.70995ZM8.70995 2.5H3.28995L1.62345 5.4165L5.99995 9.793L10.3765 5.4165L8.70995 2.5ZM3.64645 4.6465C3.73255 4.56041 3.8471 4.5087 3.96861 4.50106C4.09012 4.49342 4.21025 4.53037 4.30645 4.605L4.35345 4.6465L5.99995 6.293L7.64645 4.6465C7.73643 4.55683 7.85717 4.50476 7.98414 4.50089C8.11112 4.49701 8.23481 4.54161 8.33009 4.62562C8.42537 4.70964 8.4851 4.82678 8.49715 4.95324C8.5092 5.0797 8.47266 5.206 8.39495 5.3065L8.35345 5.3535L6.44195 7.265C6.33308 7.37384 6.18787 7.43868 6.03415 7.44707C5.88044 7.45547 5.72903 7.40684 5.60895 7.3105L5.55795 7.2655L3.64645 5.3535C3.55272 5.25974 3.50006 5.13258 3.50006 5C3.50006 4.86742 3.55272 4.74026 3.64645 4.6465Z" fill=""/>
</g>
<defs>
<clipPath id="clip0_5_97">
<rect width="12" height="12" fill=""/>
</clipPath>
</defs>
</svg>
